HIERARCHY
ROOT Hips
{
	OFFSET 0.000000 0.000000 0.000000
	CHANNELS 6 Xposition Yposition Zposition Xrotation Yrotation Zrotation
	JOINT Chest
	{
		OFFSET 0.000000 9.585900 0.002600
		CHANNELS 3 Xrotation Yrotation Zrotation
		JOINT Chest2
		{
			OFFSET 0.000000 9.601200 -0.005300
			CHANNELS 3 Xrotation Yrotation Zrotation
			JOINT Chest3
			{
				OFFSET 0.000000 9.561800 0.000000
				CHANNELS 3 Xrotation Yrotation Zrotation
				JOINT Chest4
				{
					OFFSET 0.000000 9.552100 0.000000
					CHANNELS 3 Xrotation Yrotation Zrotation
					JOINT Neck
					{
						OFFSET 0.000000 14.453000 0.000000
						CHANNELS 3 Xrotation Yrotation Zrotation
						JOINT Head
						{
							OFFSET 0.000000 8.936500 -0.011300
							CHANNELS 3 Xrotation Yrotation Zrotation
							End Site
							{
								OFFSET 0.000000 0.000000 0.000000
							}
						}
					}
					JOINT RightCollar
					{
						OFFSET -2.921100 9.558500 0.000000
						CHANNELS 3 Xrotation Yrotation Zrotation
						JOINT RightShoulder
						{
							OFFSET -13.519700 0.000000 0.000000
							CHANNELS 3 Xrotation Yrotation Zrotation
							JOINT RightElbow
							{
								OFFSET 0.000000 -29.696600 0.000000
								CHANNELS 3 Xrotation Yrotation Zrotation
								JOINT RightWrist
								{
									OFFSET 0.000000 -24.004700 0.000000
									CHANNELS 3 Xrotation Yrotation Zrotation
									End Site
									{
										OFFSET 0.000000 0.000000 0.000000
									}
								}
							}
						}
					}
					JOINT LeftCollar
					{
						OFFSET 2.921100 9.558500 0.000000
						CHANNELS 3 Xrotation Yrotation Zrotation
						JOINT LeftShoulder
						{
							OFFSET 13.519700 0.000000 0.000000
							CHANNELS 3 Xrotation Yrotation Zrotation
							JOINT LeftElbow
							{
								OFFSET 0.000000 -29.696600 0.000000
								CHANNELS 3 Xrotation Yrotation Zrotation
								JOINT LeftWrist
								{
									OFFSET 0.000000 -24.004700 0.000000
									CHANNELS 3 Xrotation Yrotation Zrotation
									End Site
									{
										OFFSET 0.000000 0.000000 0.000000
									}
								}
							}
						}
					}
				}
			}
		}
	}
	JOINT RightHip
	{
		OFFSET -7.771700 -0.012900 -0.001300
		CHANNELS 3 Xrotation Yrotation Zrotation
		JOINT RightKnee
		{
			OFFSET 0.000000 -40.869801 0.001200
			CHANNELS 3 Xrotation Yrotation Zrotation
			JOINT RightAnkle
			{
				OFFSET 0.000000 -39.717899 0.002100
				CHANNELS 3 Xrotation Yrotation Zrotation
				JOINT RightToe
				{
					OFFSET 0.000000 -4.965400 11.033500
					CHANNELS 3 Xrotation Yrotation Zrotation
					End Site
					{
						OFFSET 0.000000 0.000000 0.000000
					}
				}
			}
		}
	}
	JOINT LeftHip
	{
		OFFSET 7.771700 -0.012900 -0.001300
		CHANNELS 3 Xrotation Yrotation Zrotation
		JOINT LeftKnee
		{
			OFFSET 0.000000 -40.869801 0.001200
			CHANNELS 3 Xrotation Yrotation Zrotation
			JOINT LeftAnkle
			{
				OFFSET 0.000000 -39.717899 0.002100
				CHANNELS 3 Xrotation Yrotation Zrotation
				JOINT LeftToe
				{
					OFFSET 0.000000 -4.965400 11.033500
					CHANNELS 3 Xrotation Yrotation Zrotation
					End Site
					{
						OFFSET 0.000000 0.000000 0.000000
					}
				}
			}
		}
	}
}
MOTION
Frames: 15
Frame Time: 0.032
0.0 0.0 0.0 -149.120269 -1.692191 -179.808487 18.838333 0.025437 3.797977 3.752134 0.609408 1.066442 3.546185 0.028256 0.761243 16.305963 1.771847 1.872611 14.611038 -0.125739 -2.649114 -4.111376 6.746665 -4.327728 -5.404165 5.355602 -2.563726 -25.237238 32.356153 -13.500804 -81.686371 30.693122 48.178488 -13.580413 -31.619145 -42.936772 -1.235853 -5.553131 -2.658867 -11.828050 5.334700 -1.605989 -67.985729 7.358301 -18.917532 -25.720730 8.435306 30.549069 -46.288957 5.142822 -0.138617 70.653458 -2.143164 -4.523125 19.222985 6.315213 7.935100 -1.269232 -0.002662 0.633852 -42.191311 -1.740002 -4.447983 78.821701 4.729209 1.104062 -15.414246 -8.983543 -2.956895 -0.511890 -0.039442 -0.382043
0.0 0.0 0.0 -149.104723 -1.696296 -179.785523 18.838678 0.032634 3.787678 3.753991 0.620857 1.087329 3.540655 0.038048 0.780613 16.302024 1.785154 1.889753 14.612355 -0.122607 -2.663354 -4.108515 6.745251 -4.344376 -5.425385 5.359125 -2.578387 -25.256576 32.403497 -13.496531 -81.679193 30.762564 48.263677 -13.553722 -31.519212 -42.935157 -1.226307 -5.542926 -2.654917 -11.830607 5.362970 -1.619415 -67.954939 7.358633 -18.921022 -25.755380 8.439915 30.563949 -46.292160 5.170050 -0.151830 70.623664 -2.134931 -4.533701 19.279988 6.340824 7.927325 -1.269308 0.003924 0.622339 -42.187452 -1.739784 -4.448023 78.800787 4.732598 1.094345 -15.425412 -8.992986 -2.947178 -0.509652 -0.033093 -0.382304
0.0 0.0 0.0 -149.093918 -1.694078 -179.763503 18.826631 0.028708 3.770405 3.750148 0.621574 1.099654 3.526389 0.039519 0.788656 16.295651 1.788637 1.899386 14.608024 -0.129092 -2.684916 -4.109866 6.750955 -4.356146 -5.437961 5.360064 -2.602456 -25.261934 32.424110 -13.500924 -81.652302 30.792374 48.288290 -13.550506 -31.551977 -42.965780 -1.228492 -5.538875 -2.652921 -11.823480 5.374321 -1.637243 -67.930480 7.378102 -18.927006 -25.769428 8.445344 30.569133 -46.300613 5.184713 -0.176253 70.603761 -2.143573 -4.548567 19.296710 6.342533 7.903812 -1.271649 0.007560 0.602047 -42.197899 -1.741565 -4.443781 78.786437 4.715794 1.080335 -15.436946 -8.993439 -2.934531 -0.510935 -0.030232 -0.386976
0.0 0.0 0.0 -149.090640 -1.699244 -179.766672 18.828221 0.036271 3.777788 3.750167 0.624365 1.098361 3.521552 0.042126 0.782890 16.291852 1.793771 1.893925 14.615116 -0.127828 -2.682224 -4.105301 6.753327 -4.346443 -5.460312 5.355168 -2.594054 -25.275788 32.436978 -13.469151 -81.617953 30.822885 48.332143 -13.531885 -31.553722 -42.981052 -1.225160 -5.535600 -2.667157 -11.835755 5.385632 -1.657132 -67.911205 7.375791 -18.911488 -25.781312 8.431609 30.599620 -46.303819 5.191394 -0.175640 70.603747 -2.130090 -4.545099 19.326085 6.376918 7.912950 -1.267247 0.011707 0.605998 -42.193074 -1.737616 -4.452161 78.792051 4.721857 1.084313 -15.444405 -8.996647 -2.948064 -0.505150 -0.025900 -0.387371
0.0 0.0 0.0 -149.096937 -1.704718 -179.750239 18.819224 0.030269 3.776755 3.745607 0.627527 1.116609 3.510653 0.044998 0.799123 16.283627 1.798639 1.916282 14.601915 -0.130688 -2.686279 -4.117734 6.751256 -4.347386 -5.479160 5.358408 -2.596992 -25.294231 32.469148 -13.459166 -81.568523 30.879934 48.387468 -13.532311 -31.563728 -42.978043 -1.221717 -5.533181 -2.663368 -11.835993 5.387492 -1.678049 -67.866146 7.387072 -18.904994 -25.816911 8.436764 30.617214 -46.311944 5.205228 -0.182298 70.575546 -2.138446 -4.550433 19.352673 6.388424 7.912574 -1.282967 0.008047 0.597988 -42.200303 -1.741558 -4.438036 78.773466 4.716479 1.084731 -15.474934 -9.006783 -2.938069 -0.519730 -0.029684 -0.385504
0.0 0.0 0.0 -149.098727 -1.708168 -179.742302 18.822045 0.035489 3.781623 3.745187 0.632563 1.121816 3.511587 0.051144 0.803934 16.280336 1.803669 1.924690 14.594125 -0.128040 -2.685351 -4.122042 6.748683 -4.346904 -5.491360 5.358409 -2.600248 -25.305873 32.490568 -13.454003 -81.559200 30.916803 48.409386 -13.515156 -31.505272 -42.958191 -1.225887 -5.530895 -2.667750 -11.843057 5.398615 -1.679995 -67.860948 7.380085 -18.899202 -25.839601 8.435389 30.631824 -46.317972 5.213846 -0.185651 70.563279 -2.131021 -4.549936 19.372402 6.401013 7.916951 -1.289554 0.011145 0.599332 -42.202427 -1.741232 -4.437632 78.764048 4.722282 1.086730 -15.486450 -9.008510 -2.933638 -0.524206 -0.026305 -0.381871
0.0 0.0 0.0 -149.129585 -1.725033 -179.755088 18.794128 0.024305 3.788565 3.722291 0.633410 1.118131 3.495872 0.051277 0.803773 16.254073 1.801920 1.924752 14.573983 -0.127354 -2.674390 -4.152509 6.733564 -4.347936 -5.534073 5.352305 -2.588388 -25.353635 32.494837 -13.438144 -81.568209 30.930054 48.445391 -13.521371 -31.421155 -42.927944 -1.235701 -5.530642 -2.670220 -11.882336 5.412588 -1.669796 -67.870955 7.376533 -18.868693 -25.880925 8.408161 30.644689 -46.334371 5.222619 -0.164735 70.548505 -2.142748 -4.535062 19.369097 6.424551 7.935808 -1.321975 0.001261 0.601714 -42.211829 -1.730022 -4.437121 78.753085 4.721006 1.104548 -15.522537 -9.017375 -2.955968 -0.555687 -0.035169 -0.388244
0.0 0.0 0.0 -149.135787 -1.736216 -179.760812 18.789396 0.021755 3.792942 3.728330 0.633540 1.103524 3.506604 0.052171 0.792141 16.257056 1.800071 1.910399 14.570479 -0.127914 -2.674390 -4.154350 6.722393 -4.356479 -5.539464 5.345426 -2.587632 -25.370048 32.510987 -13.441400 -81.570354 30.966718 48.466527 -13.495539 -31.335378 -42.893684 -1.211908 -5.528331 -2.687135 -11.885987 5.422266 -1.682367 -67.868222 7.360545 -18.857322 -25.898534 8.392838 30.654695 -46.330054 5.229447 -0.159661 70.544024 -2.135591 -4.536899 19.394199 6.430130 7.944394 -1.325157 -0.002256 0.602240 -42.204340 -1.727359 -4.454581 78.747990 4.730731 1.106809 -15.527525 -9.021705 -2.975992 -0.556465 -0.038887 -0.397460
0.0 0.0 0.0 -149.110816 -1.733093 -179.749938 18.809204 0.017033 3.787061 3.746693 0.625070 1.118815 3.529784 0.043295 0.814800 16.268655 1.793726 1.938139 14.581610 -0.143291 -2.684996 -4.140560 6.687326 -4.362645 -5.529982 5.320495 -2.601196 -25.359128 32.488983 -13.450515 -81.549467 30.950377 48.495388 -13.463895 -31.191094 -42.822885 -1.167901 -5.543173 -2.673416 -11.885534 5.412827 -1.656866 -67.875770 7.340168 -18.873498 -25.883664 8.389276 30.644863 -46.314802 5.218771 -0.172138 70.546859 -2.143920 -4.545704 19.419666 6.424050 7.934625 -1.312288 -0.016908 0.595828 -42.192148 -1.758098 -4.445123 78.749520 4.726837 1.087872 -15.515022 -9.044461 -2.957260 -0.543105 -0.053424 -0.392230
0.0 0.0 0.0 -149.134599 -1.744416 -179.746045 18.785192 0.014537 3.797712 3.721432 0.622552 1.106602 3.505918 0.040880 0.804286 16.240006 1.785197 1.937043 14.555842 -0.152092 -2.687968 -4.164339 6.666590 -4.357882 -5.580634 5.298794 -2.600601 -25.405934 32.507896 -13.434274 -81.582170 30.991444 48.536239 -13.477346 -30.987527 -42.812845 -1.177799 -5.547172 -2.689516 -11.920784 5.431996 -1.674695 -67.897408 7.340639 -18.840086 -25.931985 8.378882 30.659835 -46.338988 5.237150 -0.172584 70.525815 -2.145572 -4.537133 19.434825 6.438882 7.946681 -1.339907 -0.020124 0.600376 -42.208776 -1.756823 -4.460072 78.723135 4.720929 1.095955 -15.544618 -9.054077 -2.969682 -0.566908 -0.056484 -0.395084
0.0 0.0 0.0 -149.154215 -1.755914 -179.746127 18.768129 0.002853 3.804574 3.709557 0.618782 1.107016 3.500283 0.034777 0.814899 16.220320 1.775659 1.953369 14.536015 -0.157668 -2.685750 -4.189101 6.627225 -4.363131 -5.608380 5.273182 -2.595882 -25.444855 32.506926 -13.443709 -81.612687 31.017644 48.594651 -13.464703 -30.723939 -42.725637 -1.161329 -5.555275 -2.687981 -11.956890 5.444770 -1.648313 -67.910378 7.329939 -18.824693 -25.971897 8.365865 30.654883 -46.351911 5.247283 -0.161230 70.506704 -2.159833 -4.529542 19.448964 6.442894 7.963733 -1.368576 -0.035086 0.603203 -42.214322 -1.765958 -4.457604 78.700172 4.722370 1.099830 -15.570697 -9.075245 -2.975792 -0.592315 -0.071821 -0.396194
0.0 0.0 0.0 -149.189554 -1.777352 -179.761235 18.738839 -0.015717 3.819765 3.692897 0.605756 1.074525 3.490123 0.020285 0.783517 16.198535 1.751780 1.929960 14.510366 -0.175929 -2.682765 -4.217737 6.578664 -4.359548 -5.649563 5.235769 -2.592258 -25.495249 32.504378 -13.431456 -81.649946 31.065551 48.610064 -13.450559 -30.431904 -42.673652 -1.151867 -5.568127 -2.728113 -11.987500 5.467481 -1.686498 -67.930411 7.309697 -18.787084 -26.017898 8.342241 30.659869 -46.362972 5.249767 -0.158373 70.492689 -2.172325 -4.514420 19.465582 6.439688 7.979987 -1.397627 -0.055386 0.611045 -42.223867 -1.777453 -4.488709 78.676170 4.718025 1.113556 -15.595951 -9.098196 -3.010731 -0.617583 -0.091917 -0.409901
0.0 0.0 0.0 -149.169965 -1.765745 -179.742753 18.746588 -0.005903 3.809256 3.686476 0.594687 1.080066 3.504322 0.007768 0.794460 16.184794 1.734799 1.946116 14.495234 -0.197274 -2.715746 -4.217991 6.527885 -4.372910 -5.670459 5.190955 -2.633579 -25.493855 32.467195 -13.430876 -81.707053 31.023675 48.633990 -13.388544 -30.048454 -42.518911 -1.125816 -5.592652 -2.736589 -12.032663 5.470739 -1.686946 -67.994656 7.308354 -18.817753 -26.009825 8.356102 30.609527 -46.368638 5.250786 -0.192964 70.500236 -2.174432 -4.516377 19.460903 6.427953 7.953335 -1.398744 -0.057950 0.601936 -42.234683 -1.810192 -4.497826 78.663958 4.703923 1.087246 -15.577394 -9.106636 -2.989484 -0.615864 -0.094223 -0.406007
0.0 0.0 0.0 -149.183817 -1.781589 -179.746072 18.744008 -0.011604 3.821729 3.685594 0.582387 1.059844 3.525421 -0.009773 0.774355 16.178311 1.708881 1.933444 14.471989 -0.213905 -2.723798 -4.235565 6.461189 -4.374280 -5.690295 5.144911 -2.639355 -25.513869 32.451875 -13.427849 -81.767603 31.040536 48.646766 -13.312984 -29.597850 -42.358757 -1.095185 -5.618784 -2.780639 -12.066149 5.477513 -1.730606 -68.034626 7.292293 -18.806356 -26.031109 8.356224 30.576626 -46.367521 5.249508 -0.207775 70.500775 -2.177652 -4.507792 19.478422 6.415328 7.960693 -1.415165 -0.072912 0.608963 -42.236281 -1.841349 -4.527289 78.643392 4.708537 1.084596 -15.577901 -9.126798 -3.007751 -0.627254 -0.109820 -0.412635
0.0 0.0 0.0 -149.199800 -1.788711 -179.729270 18.736351 0.010890 3.820100 3.653690 0.590017 1.056898 3.524499 -0.005462 0.775981 16.142121 1.699134 1.935675 14.424658 -0.218379 -2.747659 -4.268836 6.412678 -4.389769 -5.738675 5.113855 -2.664831 -25.545628 32.440219 -13.419547 -81.900259 31.028095 48.685708 -13.229023 -29.015163 -42.124054 -1.100480 -5.629697 -2.798897 -12.156394 5.502059 -1.746226 -68.124532 7.305524 -18.822506 -26.050801 8.379635 30.513184 -46.393975 5.272789 -0.226340 70.498549 -2.169744 -4.491757 19.449032 6.414743 7.948034 -1.449191 -0.060827 0.611979 -42.262957 -1.848607 -4.545404 78.611857 4.711637 1.076704 -15.578787 -9.118616 -2.997938 -0.655917 -0.097431 -0.409359
